HIERARCHY
ROOT Hips
{
 OFFSET 0.000000 0.000000 0.000000
 CHANNELS 6 Xposition Yposition Zposition Yrotation Xrotation Zrotation
 JOINT Chest
 {
  OFFSET 0.000000 9.588913 -0.003946
  CHANNELS 3 Yrotation Xrotation Zrotation
  JOINT Chest2
  {
   OFFSET 0.000000 9.541882 0.008053
   CHANNELS 3 Yrotation Xrotation Zrotation
   JOINT Chest3
   {
    OFFSET 0.000000 9.501360 0.000000
    CHANNELS 3 Yrotation Xrotation Zrotation
    JOINT Chest4
    {
     OFFSET 0.000000 9.491660 0.000000
     CHANNELS 3 Yrotation Xrotation Zrotation
     JOINT Neck
     {
      OFFSET 0.000000 14.331917 0.000000
      CHANNELS 3 Yrotation Xrotation Zrotation
      JOINT Head
      {
       OFFSET 0.000000 8.884799 0.017034
       CHANNELS 3 Yrotation Xrotation Zrotation
       End Site
       {
        OFFSET 0.000000 16.896195 0.008993
       }
      }
     }
     JOINT RightCollar
     {
      OFFSET -2.923010 9.499495 0.000000
      CHANNELS 3 Yrotation Xrotation Zrotation
      JOINT RightShoulder
      {
       OFFSET -13.795216 0.000000 0.000000
       CHANNELS 3 Yrotation Xrotation Zrotation
       JOINT RightElbow
       {
        OFFSET -30.272209 0.000000 0.000000
        CHANNELS 3 Yrotation Xrotation Zrotation
        JOINT RightWrist
        {
         OFFSET -24.478199 0.000000 0.000000
         CHANNELS 3 Yrotation Xrotation Zrotation
         End Site
         {
          OFFSET -18.090752 0.000000 0.000000
         }
        }
       }
      }
     }
     JOINT LeftCollar
     {
      OFFSET 2.923010 9.499495 0.000000
      CHANNELS 3 Yrotation Xrotation Zrotation
      JOINT LeftShoulder
      {
       OFFSET 13.795216 0.000000 0.000000
       CHANNELS 3 Yrotation Xrotation Zrotation
       JOINT LeftElbow
       {
        OFFSET 30.272209 0.000000 0.000000
        CHANNELS 3 Yrotation Xrotation Zrotation
        JOINT LeftWrist
        {
         OFFSET 24.478199 0.000000 0.000000
         CHANNELS 3 Yrotation Xrotation Zrotation
         End Site
         {
          OFFSET 18.090752 0.000000 0.000000
         }
        }
       }
      }
     }
    }
   }
  }
 }
 JOINT RightHip
 {
  OFFSET -7.826875 0.019532 0.001973
  CHANNELS 3 Yrotation Xrotation Zrotation
  JOINT RightKnee
  {
   OFFSET 0.000000 -40.546152 -0.001885
   CHANNELS 3 Yrotation Xrotation Zrotation
   JOINT RightAnkle
   {
    OFFSET 0.000000 -39.417092 -0.003189
    CHANNELS 3 Yrotation Xrotation Zrotation
    JOINT RightToe
    {
     OFFSET 0.000000 -7.579396 17.243563
     CHANNELS 3 Yrotation Xrotation Zrotation
     End Site
     {
      OFFSET 0.000000 -1.500329 6.694466
     }
    }
   }
  }
 }
 JOINT LeftHip
 {
  OFFSET 7.826875 0.019532 0.001973
  CHANNELS 3 Yrotation Xrotation Zrotation
  JOINT LeftKnee
  {
   OFFSET 0.000000 -40.546152 -0.001885
   CHANNELS 3 Yrotation Xrotation Zrotation
   JOINT LeftAnkle
   {
    OFFSET 0.000000 -39.417092 -0.003189
    CHANNELS 3 Yrotation Xrotation Zrotation
    JOINT LeftToe
    {
     OFFSET 0.000000 -7.579396 17.243563
     CHANNELS 3 Yrotation Xrotation Zrotation
     End Site
     {
      OFFSET 0.000000 -1.500329 6.694466
     }
    }
   }
  }
 }
}
MOTION
Frames: 5
Frame Time: 0.008333
0.000000 87.345680 0.000000 0.000000 -5.767889 0.000000 0.000000 11.653876 0.000000 0.000000 -5.885988 0.000000 0.000000 -0.000000 0.000000 0.000000 -0.000000 0.000000 0.000000 12.528808 0.000000 0.000000 0.711711 0.000000 0.000000 -0.000000 0.000000 0.000000 -0.000000 0.000000 2.309063 -0.000000 0.000000 -2.309063 -0.000000 -0.000000 0.000000 -0.000000 0.000000 0.000000 0.000000 0.000000 -2.309063 0.000000 0.000000 2.309063 -0.000000 0.000000 0.000000 8.520374 0.000000 0.000000 1.905768 0.000000 -0.000000 -4.658254 0.000000 0.000000 -0.000000 0.000000 0.000000 8.520374 0.000000 0.000000 1.905768 0.000000 -0.000000 -4.658254 0.000000 0.000000 -0.000000 0.000000
14.399458 89.193823 4.837062 57.129614 -3.163055 1.091982 -0.867999 1.251101 -0.159123 -0.504837 0.719616 -0.027195 -0.631112 0.899480 -0.034985 -0.504837 0.719616 -0.027195 -0.289523 16.211925 -0.452921 -0.199805 -8.722510 -0.407134 -1.753870 -1.335648 -0.943740 -4.690563 2.030184 87.891327 1.957481 -0.607567 -1.276148 0.086797 -2.627594 -9.760138 -1.583605 -1.278958 0.395770 2.523756 1.842312 -89.550241 -1.392487 3.643124 -0.357174 2.343578 -1.518259 -1.322048 -3.954550 8.872180 1.076722 -2.021638 2.780025 -0.683666 -1.036661 -7.442985 -1.528887 0.008436 -0.126119 -0.004126 -9.464243 6.496021 -3.902818 0.419995 0.041267 -0.311786 0.795871 -2.148377 2.523462 -0.009864 0.120381 -0.025036
14.399684 89.193758 4.841485 57.129701 -3.162284 1.091859 -0.865598 1.251262 -0.161215 -0.503771 0.719219 -0.028669 -0.629783 0.898982 -0.036825 -0.503771 0.719219 -0.028669 -0.290049 16.217068 -0.451760 -0.200621 -8.717029 -0.405814 -1.758097 -1.338653 -0.940181 -4.691051 2.037773 87.886168 1.942741 -0.604790 -1.278115 0.086718 -2.631695 -9.757496 -1.581633 -1.284326 0.392123 2.515214 1.838737 -89.549605 -1.392079 3.635544 -0.360610 2.342244 -1.515714 -1.321884 -3.959491 8.875691 1.080183 -2.021137 2.774270 -0.685317 -1.034978 -7.439404 -1.530264 0.008679 -0.125744 -0.003105 -9.463696 6.495581 -3.901953 0.417427 0.045990 -0.309134 0.795960 -2.153040 2.524450 -0.009679 0.122138 -0.024194
14.399604 89.193614 4.846227 57.130037 -3.160336 1.092714 -0.863210 1.250048 -0.163691 -0.502484 0.718414 -0.030364 -0.628177 0.897974 -0.038941 -0.502484 0.718414 -0.030364 -0.290197 16.222467 -0.451528 -0.200834 -8.711271 -0.405549 -1.764797 -1.339996 -0.936462 -4.692149 2.045561 87.880900 1.928340 -0.597552 -1.280476 0.092048 -2.637306 -9.757349 -1.579872 -1.287485 0.389131 2.508989 1.835695 -89.550662 -1.394916 3.626107 -0.363151 2.342650 -1.512769 -1.321824 -3.959475 8.879539 1.083151 -2.020675 2.765320 -0.685623 -1.037264 -7.435238 -1.531645 0.008824 -0.124563 -0.002935 -9.466156 6.492617 -3.902841 0.415610 0.052840 -0.304052 0.796529 -2.159057 2.524149 -0.009329 0.123822 -0.023824
14.399430 89.193402 4.851454 57.129597 -3.159918 1.093594 -0.861694 1.249516 -0.165776 -0.501625 0.718441 -0.031583 -0.627105 0.898006 -0.040462 -0.501625 0.718441 -0.031583 -0.287968 16.226242 -0.453223 -0.198130 -8.707241 -0.407828 -1.768872 -1.341862 -0.934244 -4.694419 2.052622 87.873651 1.918118 -0.589982 -1.280988 0.095327 -2.644110 -9.756186 -1.574754 -1.290890 0.384641 2.502987 1.832594 -89.552961 -1.399752 3.614438 -0.364962 2.345972 -1.508867 -1.321349 -3.954684 8.886289 1.086397 -2.020732 2.753769 -0.685257 -1.040973 -7.430288 -1.533431 0.008588 -0.123289 -0.002892 -9.469914 6.490636 -3.903985 0.416045 0.061154 -0.298758 0.796474 -2.166326 2.523400 -0.008714 0.125345 -0.023448
